<svg width="600" height="420" xmlns="http://www.w3.org/2000/svg">

 <g>
  <title>Layer 1</title>
  <line stroke="#007fff" stroke-width="3" stroke-linecap="undefined" stroke-linejoin="undefined" id="svg_1" y2="400" x2="20" y1="50" x1="20" fill="none"/>
  <line stroke="#007fff" stroke-linecap="undefined" stroke-linejoin="undefined" id="svg_2" y2="390" x2="530" y1="390" x1="10" stroke-width="3" fill="none"/>
  <text font-weight="bold" stroke="#000" xml:space="preserve" text-anchor="start" font-family="'Noto Serif Display'" font-size="24" id="svg_3" y="30" x="10" stroke-width="0" fill="#007fff">Beschwerden</text>
  <text font-weight="bold" xml:space="preserve" text-anchor="start" font-family="'Noto Serif Display'" font-size="24" id="svg_5" y="397.22222" x="545.55556" stroke-width="0" stroke="#000" fill="#007fff">Zeit</text>
  <path stroke="#007fff" d="m19.62963,387.40741c0,-1.06497 0,-1.06497 0,-1.06497c0,-1.06493 0,-1.06493 0,-1.06493c0.68826,-1.06497 0.68826,-1.06497 0.68826,-2.1299c0,0 0.68826,-2.12994 0.68826,-3.19487c0,-1.06497 0.31578,-0.7385 0.68826,-2.1299c0.26339,-0.98389 0,-1.06497 0,-2.12994c0,-3.19483 0.05573,-3.30877 0.68826,-7.45467c0.35359,-2.31759 0.60417,-5.33275 0.68826,-6.3897c0.34673,-4.35803 0.35752,-6.43098 0.68826,-9.58461c0.34863,-3.32417 1.37653,-5.32477 1.37653,-8.51959c0,-3.19487 0.68826,-5.32477 0.68826,-7.45471c0,-3.19483 0.33963,-5.19538 0.68826,-8.51959c0.33074,-3.15363 0,-4.25984 0.68826,-6.38974c0.68826,-2.1299 0.68826,-3.19487 0.68826,-4.2598c0,-2.1299 0.42487,-3.27595 0.68826,-4.25984c0.37249,-1.3914 0.53013,-3.2233 0.68826,-4.2598c0.35359,-2.31759 1.37653,-4.2598 2.06479,-6.3897c0.68827,-2.12994 1.10565,-3.76858 2.06479,-6.38974c1.39817,-3.82096 1.5075,-6.26356 2.75305,-9.58457c0.77248,-2.05966 0.92056,-5.65488 2.06479,-8.51964c0.51172,-1.28114 1.7112,-3.00717 2.06479,-5.32477c0.15814,-1.0365 0.42489,-3.27595 0.68826,-4.2598c0.37248,-1.39144 0.53013,-2.15842 0.68826,-3.19487c0.35359,-2.31759 1.37653,-3.19487 1.37653,-4.25984c0,0 0.68826,-1.06493 0.68826,-2.1299c0,-1.06493 1.00404,-1.80343 1.37652,-3.19487c0.52677,-1.96778 1.2184,-4.28827 1.37653,-5.32477c0.35359,-2.31759 1.7112,-3.00713 2.06479,-5.32472c0.15814,-1.0365 1.02293,-3.00717 1.37652,-5.32477c0.15814,-1.0365 1.00404,-1.80347 1.37653,-3.19487c0.79017,-2.95167 -0.38911,-5.48557 1.37652,-7.45467c0.55835,-0.62267 1.00404,-0.7385 1.37653,-2.12994c0.26338,-0.98385 1.01469,-2.28894 1.37652,-3.19483c0.8091,-2.0257 1.37653,-2.12994 2.75305,-3.19487c0,0 0.68826,-1.06497 1.37653,-2.1299c0,0 1.27517,-1.24929 2.06479,-2.1299c1.24851,-1.39236 2.75306,-2.12994 4.12958,-3.19487c1.37653,-1.06497 2.75305,-2.1299 3.44131,-2.1299c1.37653,0 1.98121,-1.5905 4.12958,-2.12994c0.67937,-0.17058 2.06479,0 2.06479,0c0.68826,0 0.68826,0 1.37653,0c0.68826,0 0.68826,0 1.37652,0c0,0 0.68827,0 1.37653,0c0.68826,0 2.15633,-0.45845 4.81785,1.06497c1.4434,0.8262 4.81784,2.1299 6.88263,2.1299c3.44132,0 5.42252,1.59046 7.57089,2.1299c1.35876,0.34117 4.00827,0.51785 5.50611,1.06497c0.66986,0.24469 1.37653,1.06497 2.06479,1.06497c0.68827,0 0.88985,0.31191 1.37653,1.06493c0.48668,0.75307 0.00001,1.06497 0.68827,2.1299c0.68827,1.06497 0.75563,1.94295 2.06479,3.19487c0.58547,0.55989 2.35307,0.44607 3.44132,2.1299c1.08824,1.68382 1.27516,3.37923 2.06479,4.25984c1.2485,1.39236 2.0648,2.1299 2.75305,3.19483c1.37654,2.12994 1.44391,4.07285 2.75306,5.32477c0.58547,0.55989 0.88985,0.31195 1.37652,1.06497c0.48668,0.75307 0.20158,2.4418 0.68826,3.19487c0.48668,0.75307 0.68827,1.06493 1.37654,2.1299c0,0 0.68826,0 0.68826,1.06497c0,1.06493 0.68826,2.1299 0.68826,3.19483c0,0 0.68826,1.06497 0.68826,2.1299c0,1.06497 0.68826,2.12994 0.68826,4.25984c0,2.1299 0.37203,4.31679 0.68827,6.3897c0.35359,2.31764 -0.10188,2.37314 0.68826,5.32477c0.37248,1.39144 0.68826,1.06497 0.68826,2.12994c0,0 0,1.06493 0,2.1299c0,1.06493 0,2.1299 0,3.19487c0,1.06493 0,2.1299 0,2.1299c0,0 0.20159,0.31191 0.68826,1.06493c0.48668,0.75307 0,1.06497 0,1.06497c0,0 0,0 0,1.06493c0,1.06497 0,1.06497 0,1.06497c0,1.06497 0.68826,1.06497 0.68826,2.1299c0,0 0,1.06497 0,1.06497c0.68827,2.1299 0.68827,2.1299 0.68827,2.1299c0,1.06497 0,1.06497 0,1.06497c0.68826,1.06493 0.68826,1.06493 0.68826,2.1299c0,0 0.31578,-0.32647 0.68826,1.06493c0.26339,0.98389 0.68826,2.12994 0.68826,3.19487c0,0 0.42488,1.14605 0.68826,2.1299c0.37249,1.39144 1.37654,1.06497 2.0648,2.12994c0,0 0.68826,0 1.37652,1.06493c0.68827,1.06497 1.77971,-0.44107 2.75306,1.06497c0.48667,0.75302 0.56696,1.58278 2.0648,2.1299c0.66984,0.24469 1.25522,1.58278 2.75304,2.1299c0.66984,0.24469 1.39495,-0.24469 2.0648,0c1.49783,0.54712 1.37652,1.06497 2.75306,1.06497c0.68826,0 0.68826,0 0.68826,0c0.68826,0 1.37652,0 2.06478,0c0,0 0.68827,0 0.68827,0c0.68826,0 1.01468,-0.15905 1.37652,-1.06497c0.8091,-2.02565 1.37652,-1.06493 2.06478,-2.1299c0.68827,-1.06497 1.00406,-0.7385 1.37654,-2.1299c0.26339,-0.98389 0.42487,-2.21098 0.68826,-3.19487c0.37248,-1.39144 1.00404,-1.80343 1.37652,-3.19487c0.26338,-0.98385 0,-2.1299 0,-4.2598c0,-2.1299 0.33963,-2.00056 0.68827,-5.32477c0.22049,-2.10239 0.90213,-5.41024 1.37652,-8.51964c0.70717,-4.63519 1.31617,-7.48731 2.06478,-10.64954c1.27485,-5.38505 1.48694,-11.67537 2.0648,-15.97431c0.8525,-6.34209 1.06587,-10.4045 2.0648,-14.90933c1.13896,-5.13628 2.22172,-10.94464 3.44132,-14.90933c1.47898,-4.80792 2.53244,-8.06286 4.12958,-12.77944c1.01012,-2.98304 2.68203,-7.04075 4.81784,-15.97433c0.98455,-4.11815 2.06478,-7.45467 3.44132,-11.71449c1.37652,-4.2598 3.24456,-7.6801 4.81784,-10.64951c1.85129,-3.49414 4.1791,-7.40491 5.50611,-10.64954c2.14608,-5.24724 3.9396,-9.8218 6.19436,-13.84441c1.27549,-2.27554 2.75306,-6.3897 4.81785,-9.58457c2.0648,-3.19487 4.12958,-6.38974 4.81784,-7.45469c1.37652,-2.1299 1.37652,-2.1299 2.75306,-4.2598c0,0 0.47725,-0.48861 1.37652,-1.06497c0.63587,-0.40755 1.37652,-1.06495 2.0648,-1.06495c0.68826,0 2.06478,0 3.4413,0c2.0648,0 5.50611,0 7.57091,0c4.12958,0 7.57089,0 11.0122,0c4.12958,0 7.61533,-0.85292 11.01221,0c2.14839,0.53944 5.54167,1.44758 8.25915,2.12992c4.29675,1.07888 6.79198,3.50215 9.6357,5.32475c2.01078,1.28875 3.35977,3.39751 5.50608,5.32477c1.33112,1.19526 2.0648,1.06497 3.44132,3.19487c1.37655,2.12992 3.04136,3.64094 4.12959,5.32477c2.17649,3.36769 6.43263,11.40083 7.57088,13.84438c1.79976,3.86365 2.58467,6.53029 4.12959,10.64954c1.24558,3.32103 2.69089,6.71777 4.12959,10.64954c1.39816,3.82098 1.37649,7.45467 2.06477,9.58459c0.68827,2.12992 1.27138,6.43372 2.0648,10.64954c0.60854,3.23337 -0.10185,4.50302 0.68827,7.45465c0.37248,1.39144 1.37652,4.25984 1.37652,4.25984c0.68825,2.1299 1.55306,5.10855 2.0648,6.3897c1.14426,2.86471 2.03392,5.90962 2.75304,9.58461c0.19945,1.01925 0.22849,6.63395 1.37652,10.64954c1.0039,3.51147 3.72757,8.26516 4.81784,11.71446c0.95623,3.02525 0.84979,5.48689 1.37655,7.45467c0.37248,1.39144 1.00404,1.80343 1.37652,3.19487c0.26339,0.98389 0.68825,2.1299 0.68825,5.32477c0,0 0.68827,1.06497 0.68827,2.1299c0,1.06497 0.68825,3.19487 0.68825,3.19487c0.68827,1.06497 0.75565,4.07285 2.0648,5.32477c0.58549,0.55989 0.68827,1.06497 0.68827,1.06497c0.68825,1.06493 1.37652,3.19483 2.0648,4.2598c0.68825,1.06493 0.79104,1.57001 1.37652,2.1299c1.30915,1.25192 0.68825,2.1299 1.37652,3.19487c0,0 0.68827,1.06493 1.37652,1.06493c0.68827,0 0.74068,0.65746 1.37652,1.06497c1.79854,1.15268 2.0648,2.12994 3.44132,3.19487c1.37655,1.06497 1.8538,1.55356 2.75307,2.1299c1.27175,0.81506 2.6517,1.24929 3.44132,2.1299c1.24852,1.39236 2.66945,1.59046 4.81784,2.1299c1.35874,0.34117 2.0648,0 4.12956,1.06497c0,0 1.37655,0 2.0648,0c0.68827,0 1.37652,0 2.0648,0c0.68827,0 1.37652,0 1.37652,0c0.68827,0 1.37652,0 2.0648,0c0,0 1.37652,-1.06497 2.0648,-1.06497c0,0 2.06477,-1.06493 2.06477,-1.06493c0,0 0.68827,0 1.37655,-1.06497c0,0 0.28582,-0.20103 0.68825,-1.06493c1.2726,-2.73204 2.0648,-1.06497 2.75307,-2.12994c0.68825,-1.06493 0.68825,-1.06493 2.06477,-4.2598c0,0 1.00407,-1.80343 1.37655,-3.19487c0.79016,-2.95167 1.06027,-5.38176 1.37652,-7.45467c0.35359,-2.31759 2.1641,-4.18969 2.75304,-6.3897c0.83289,-3.11133 2.39945,-5.13707 2.75304,-7.45471c0.31625,-2.07291 1.7112,-4.0721 2.0648,-6.3897c0.15814,-1.0365 0.79106,-3.7 1.37652,-4.25984c1.30915,-1.25192 1.1771,-4.30547 1.37655,-5.32472c0.71913,-3.67499 1.90663,-5.35324 2.06477,-6.38974c0.35359,-2.31759 1.47585,-6.31963 2.0648,-8.51964c0.83289,-3.11133 1.37652,-6.3897 1.37652,-10.64954c0,-5.32477 0.91676,-10.89379 2.0648,-14.90933c1.00393,-3.51151 1.95965,-7.49867 2.75307,-11.71449c0.60851,-3.23337 3.14089,-7.13783 4.81784,-12.77944c0.90945,-3.05958 2.16583,-7.30905 3.44132,-9.58459c2.25475,-4.02259 2.99131,-8.20596 4.12956,-10.64954c1.79973,-3.86365 2.43121,-6.60157 3.44132,-9.58457c1.59713,-4.71658 3.44132,-7.45469 4.81784,-10.64954c1.37652,-3.19487 2.75307,-5.32477 4.12959,-7.45469c2.0648,-3.19487 2.89539,-5.12527 4.12956,-7.45467c1.57331,-2.96944 2.75307,-6.38972 2.75307,-6.38972c1.37652,-2.1299 3.04133,-3.64094 4.12956,-5.32477c1.08826,-1.68382 2.0648,-3.19485 3.44132,-5.32477c0,0 0.74068,-0.65742 1.37652,-1.06495c0.89927,-0.57634 1.94349,-1.58278 3.44132,-2.1299c0.66987,-0.24469 1.57813,0.75302 2.0648,0c0.48669,-0.75304 0.68827,-1.06497 2.0648,-1.06497c0,0 1.37652,0 2.75304,0c0,0 1.37655,0 2.0648,0c0.68827,0 1.37652,0 2.75307,0c0,0 0.88983,-0.75304 1.37652,0c0.48669,0.75304 1.29301,-1.19414 2.75304,1.06497c0.48667,0.75302 0.56697,1.58278 2.0648,2.1299c0.66984,0.24467 1.96342,1.24929 2.75304,2.1299c1.2485,1.39239 1.42892,1.72237 2.0648,2.12992c0.89927,0.57634 1.37652,1.06495 1.37652,1.06495c0.68827,1.06495 0.68827,1.06495 1.37652,2.1299c0,0 0.68827,0 0.68827,1.06495c0,0 1.11313,1.14603 1.37652,2.12992c0.37248,1.39144 1.37652,2.1299 1.37652,2.1299c0,0 0.68827,1.06495 0.68827,1.06495c1.37652,2.12992 0.75565,3.0079 2.0648,4.25982c0.58546,0.55986 1.02293,0.87725 1.37652,3.19487c0.15814,1.03645 0.68825,2.1299 0.68825,3.19485c0,1.06495 1.37655,3.19487 1.37655,3.19487c0,0 0,2.1299 0.68825,2.1299c0,0 0,1.06495 0,1.06495c0,2.12992 -0.21159,2.32799 0.68827,4.25982c0.56912,1.22178 0.53011,3.22337 0.68825,4.25982c0.35359,2.31759 1.37655,5.32477 1.37655,6.38972c0,1.06495 0.68825,2.1299 0.68825,3.19485c0,2.12992 0.68827,2.12992 0.68827,3.19487c0,1.06495 0.31577,1.80345 0.68825,3.19487c0.26337,0.98389 1.02296,1.9422 1.37655,4.2598c0.15814,1.03647 0.68825,3.19485 1.37652,5.32477c0.68825,2.12992 0.68825,3.19487 0.68825,3.19487c0.68825,2.1299 1.02296,3.00713 1.37655,5.32477c0.15811,1.03645 0.68825,3.19485 0.68825,4.2598c0,1.06497 1.00401,3.9333 1.37655,5.32477c0.52679,1.96778 -0.15811,3.22337 0,4.25982c0.70719,4.63519 1.23188,4.34333 2.0648,7.45467c0.58895,2.20001 1.21838,5.35324 1.37649,6.38974c0.35359,2.31759 1.37655,3.19487 1.37655,4.2598c0,3.19487 0.68825,4.25984 0.68825,4.25984c0.68825,1.06493 1.02296,1.94216 1.37655,4.2598c0.15811,1.03645 0.33465,0.87723 0.68825,3.19487c0.15811,1.03645 0.17654,2.97866 0.68825,4.2598c1.14426,2.86476 0.47671,3.39296 1.37655,5.32477c0.5691,1.22178 1.00401,2.8684 1.37649,4.2598c0.52679,1.96783 0.16157,3.35699 0.6883,5.32477c0.37248,1.39144 0.88985,1.37692 1.37649,2.12994c0.48664,0.75302 0,2.1299 0,2.1299c0,1.06493 0.6883,2.1299 0.6883,2.1299c0,1.06493 0.20161,0.31191 0.68825,1.06493c0.48669,0.75307 0.20161,1.37692 0.68825,2.12994c0.48664,0.75302 0.20161,1.37688 0.68825,2.1299c0.48664,0.75302 0,1.06493 0,1.06493c0.6883,2.12994 1.37655,2.12994 1.37655,3.19487c0,0 0.20161,0.31195 0.68825,1.06497c0.48664,0.75302 0,1.06493 0.6883,2.1299c0,0 0,1.06497 0,1.06497c0.68825,1.06493 0.42488,1.14601 0.68825,2.1299c0.37248,1.3914 0.68825,2.1299 0.68825,2.1299c0,0 0,1.06497 0,1.06497c1.37655,1.06493 1.37655,1.06493 1.37655,2.1299c0,0 0,0 0,0c0,1.06493 0,1.06493 0.68825,3.19487c0,0 0,0 0,0c0.68825,1.06493 0.68825,2.1299 0.68825,2.1299c0,0 0.6883,1.06493 0.6883,1.06493c0,1.06497 0,1.06497 0.68825,2.1299c0,0 0.20161,0.31195 0.68825,1.06497c0.48669,0.75307 0,1.06497 0,1.06497c0.6883,1.06493 1.37655,2.1299 1.37655,2.1299c0,1.06493 0,1.06493 0.68825,1.06493c0,0 0,2.12994 0.6883,3.19487c0,0 0,1.06497 0,2.1299c0,1.06497 0.68825,2.12994 0.68825,2.12994c0,0 0,1.06493 0,1.06493c0.68825,1.06497 0.68825,1.06497 0.68825,1.06497c0,1.06493 0,1.06493 0,1.06493c0,0 0,1.06497 0,1.06497c0,0 0,1.06497 0.68825,1.06497c0,0 0,0 0.6883,1.06493c0,0 0,0 0,1.06497c0,0 0.68825,1.06493 0.68825,1.06493c0.68825,0 0.68825,0 1.37655,1.06497c0,0 1.5781,0.31195 2.06474,1.06497c0.48664,0.75302 0,1.06493 0.6883,1.06493c0.68825,0 0.68825,1.06497 0.68825,1.06497c0.68825,0 0.68825,0 0.68825,0c0.6883,0 0.72511,0.57559 2.0648,1.06493c1.49785,0.54712 2.1172,0.65746 2.75304,1.06497c0.89927,0.57634 1.37655,1.06493 2.0648,1.06493l0,0l0,0" id="svg_9" stroke-width="3" fill="none"/>
 </g>
</svg>